<svg xmlns="http://www.w3.org/2000/svg" viewBox="0 0 400 300" data-imageid="artificial-intelligence-flatline" imageName="Artificial Intelligence" class="illustrations_image" style="width: 188px;"><g id="_93_artificial_intelligence" data-name="#93_artificial_intelligence"><path d="M215.22,51.38s-19.5-11.63-49-1.25-46.46,45.23-41.48,70.12,29.85,50.61,29.85,50.61v69.7H234.3V77.93Z" fill="#231f20"/><path d="M234.3,241.06H154.63a.51.51,0,0,1-.5-.5v-69.5c-2-2.14-25.09-26.94-29.84-50.71-4.94-24.68,11.89-60.15,41.81-70.69,15.32-5.4,27.91-4.77,35.78-3.29A44.6,44.6,0,0,1,215.47,51a.5.5,0,0,1,.15.14l19.09,26.55a.52.52,0,0,1,.09.29V240.56A.5.5,0,0,1,234.3,241.06Zm-79.17-1H233.8v-162L214.87,51.76a45.18,45.18,0,0,0-13.23-4.41c-7.73-1.45-20.12-2.07-35.21,3.25C137,61,120.41,95.88,125.27,120.15c4.89,24.46,29.48,50.11,29.72,50.36a.52.52,0,0,1,.14.35Z" fill="#231f20"/><path d="M259.88,95.18c.09,18.08-2.35,24.65-.27,30.46s16.17,31.94,14.93,37.34S260.27,170,260.27,170V199.9c0,10.37-11,10.37-18.5,10S192.4,202.39,187,194.09s-12.86-35.26-12.86-35.26-27.79-.7-27.38-16.12,14.11-21.63,29.87-11.26c0,0,32.78-1.25,38.17-10.37s-2.9-61,.42-69.7S259.74,68.08,259.88,95.18Z" fill="#fff"/><path d="M245.65,210.48c-1.31,0-2.62,0-3.91-.12-7.28-.41-49.58-7.42-55.15-16-5.11-7.84-11.89-31.7-12.83-35-2.6-.11-17.46-1-24.21-8.16a11.48,11.48,0,0,1-3.29-8.46c.19-7,3.19-12.54,8.22-15.16,6-3.15,14.15-1.91,22.29,3.4,2.47-.11,32.6-1.65,37.6-10.12,2.91-4.92,1.68-23.34.59-39.59-.93-14-1.73-26-.21-30,.47-1.24,1.83-2.57,5.65-1.87,11.87,2.15,39.87,23.53,40,45.85h0c0,7.87-.39,13.46-.74,18-.44,5.7-.7,9.15.44,12.33.61,1.72,2.34,5.34,4.34,9.54,6.3,13.2,11.45,24.43,10.61,28.08-1.19,5.15-11.91,7-14.26,7.38V199.9a9.44,9.44,0,0,1-2.76,7.18C255.12,209.81,250.43,210.48,245.65,210.48Zm-83.86-83.65a14.65,14.65,0,0,0-6.85,1.59c-4.77,2.49-7.5,7.57-7.68,14.31a10.51,10.51,0,0,0,3,7.74c7,7.34,23.72,7.86,23.89,7.86a.5.5,0,0,1,.47.37c.07.26,7.5,27,12.79,35.12s47.43,15.15,54.37,15.54c5.78.32,12.13.21,15.53-3a8.48,8.48,0,0,0,2.45-6.45V170a.51.51,0,0,1,.43-.5c.13,0,12.7-1.67,13.85-6.66.83-3.61-6-18-10.53-27.43-2.1-4.4-3.76-7.87-4.39-9.63-1.21-3.39-.93-6.91-.48-12.75.34-4.48.77-10,.73-17.87h0c-.11-21.85-27.54-42.77-39.16-44.88-1.73-.31-3.93-.35-4.54,1.25-1.44,3.78-.6,16.32.28,29.6,1.15,17.2,2.34,35-.73,40.17C209.76,130.59,178,131.9,176.65,132a.51.51,0,0,1-.29-.08C171.29,128.54,166.26,126.83,161.79,126.83Z" fill="#231f20"/><path d="M260.27,185.74h-35a.5.5,0,0,1-.5-.5.5.5,0,0,1,.5-.5h35a.51.51,0,0,1,.5.5A.5.5,0,0,1,260.27,185.74Z" fill="#231f20"/><path d="M239.55,120.15A20,20,0,0,1,227.61,116a.49.49,0,0,1-.06-.7.51.51,0,0,1,.71-.06c.42.36,10.38,8.67,22.66,0a.5.5,0,1,1,.58.82A20.44,20.44,0,0,1,239.55,120.15Z" fill="#231f20"/><polygon points="257.4 257.22 127.09 257.22 137.61 223.9 246.88 223.9 257.4 257.22" fill="#a44200" class="target-color"/><path d="M249,245.18H133.23a.5.5,0,0,1-.5-.5.51.51,0,0,1,.5-.5H249a.51.51,0,0,1,.5.5A.5.5,0,0,1,249,245.18Z" fill="#231f20"/><path d="M169.72,97.67c.32-.92.62-1.84.94-2.75.17-.47.36-.94.55-1.4a1.37,1.37,0,0,1,1.46-.9c.74.09,1.47.24,2.21.36a6.18,6.18,0,0,0,1.2.16,1.34,1.34,0,0,0,.82-.27c.85-.81,1.66-1.65,2.47-2.51a1.26,1.26,0,0,0,.25-1.17c-.19-.9-.41-1.79-.59-2.68a3.88,3.88,0,0,1-.1-1.07,1,1,0,0,1,.35-.68,16.75,16.75,0,0,1,4.43-2,1.12,1.12,0,0,1,1.27.46c.57.78,1.16,1.53,1.7,2.33a1.8,1.8,0,0,0,1.75.88c1-.07,2-.09,2.95-.14a1.11,1.11,0,0,0,.88-.53c.35-.52.68-1,1-1.57s.58-.9.89-1.34a1.15,1.15,0,0,1,1.36-.47c1.36.47,2.72,1,4.06,1.47a1.18,1.18,0,0,1,.73,1.31c-.07.76-.24,1.5-.36,2.25-.06.35-.11.71-.14,1.06a1.47,1.47,0,0,0,.45,1.25c.72.68,1.45,1.34,2.14,2a1.6,1.6,0,0,0,1.59.46c1-.22,1.94-.45,2.91-.66a1.3,1.3,0,0,1,1.63.77c.55,1.16,1.08,2.33,1.6,3.51a1.39,1.39,0,0,1-.5,1.94c-.5.39-1,.73-1.55,1.11s-.73.56-1.08.86a1.25,1.25,0,0,0-.45,1c0,1,0,2,.09,3.05a1.57,1.57,0,0,0,.81,1.35c.56.33,1.12.65,1.67,1a10.24,10.24,0,0,1,1,.67,1.22,1.22,0,0,1,.46,1.46c-.45,1.23-.91,2.45-1.38,3.67a2.07,2.07,0,0,1-.3.52,1.08,1.08,0,0,1-1.14.54l-2.64-.44-.2,0a1.91,1.91,0,0,0-2,.7c-.5.59-1.06,1.13-1.6,1.68a1.92,1.92,0,0,0-.49,1.92c.22.85.43,1.71.6,2.57a1.27,1.27,0,0,1-.83,1.72c-1.19.57-2.41,1.11-3.63,1.63a1.21,1.21,0,0,1-1.61-.42c-.47-.59-.9-1.22-1.34-1.84-1-1.33-1.19-1.45-2.82-1.37l-1.91.11a1.77,1.77,0,0,0-1.5.87c-.39.64-.76,1.3-1.16,1.93a6.4,6.4,0,0,1-.74.91.91.91,0,0,1-1,.26L181,121.75a2.5,2.5,0,0,1-.5-.29,1.1,1.1,0,0,1-.54-1.14c.14-.87.29-1.74.43-2.61,0-.27.06-.53.08-.8a1.39,1.39,0,0,0-.45-1.18c-.7-.64-1.39-1.29-2.08-1.94a1.55,1.55,0,0,0-1.52-.38c-.86.21-1.72.4-2.58.6l-.1,0c-1.12.21-1.49.06-2-1s-1-2.33-1.52-3.51a1.16,1.16,0,0,1,.47-1.61c.68-.52,1.38-1,2.1-1.49a2,2,0,0,0,1-2c-.06-.91-.08-1.83-.13-2.75a1.14,1.14,0,0,0-.53-1c-.77-.49-1.54-1-2.29-1.46A2.52,2.52,0,0,1,169.72,98Zm29.14,5.11a8.69,8.69,0,0,0-8.76-8.7,8.82,8.82,0,0,0-8.56,8.71,8.69,8.69,0,0,0,8.62,8.66A8.59,8.59,0,0,0,198.86,102.78Z" fill="#a44200" class="target-color"/><path d="M130.15,103.75c.26-.75.5-1.49.77-2.23.13-.39.29-.76.44-1.14a1.1,1.1,0,0,1,1.18-.72c.6.06,1.2.19,1.8.29a5.25,5.25,0,0,0,1,.12,1.06,1.06,0,0,0,.66-.21c.69-.66,1.35-1.35,2-2a1,1,0,0,0,.21-.95c-.16-.73-.33-1.45-.48-2.18a2.76,2.76,0,0,1-.08-.86.84.84,0,0,1,.28-.55,13.63,13.63,0,0,1,3.6-1.64.9.9,0,0,1,1,.37c.46.63.94,1.25,1.38,1.89a1.48,1.48,0,0,0,1.42.72c.8-.06,1.59-.08,2.39-.11a.91.91,0,0,0,.72-.44l.83-1.27c.24-.37.47-.73.73-1.08a.89.89,0,0,1,1.09-.38c1.11.38,2.21.77,3.3,1.19a1,1,0,0,1,.59,1.06c-.06.61-.2,1.21-.29,1.82-.05.29-.09.57-.12.86a1.19,1.19,0,0,0,.37,1c.58.55,1.17,1.09,1.73,1.66a1.31,1.31,0,0,0,1.29.37c.79-.17,1.57-.37,2.36-.54a1.06,1.06,0,0,1,1.32.63c.45.94.88,1.89,1.3,2.84a1.13,1.13,0,0,1-.41,1.58c-.4.32-.84.59-1.25.9s-.59.46-.87.7a1,1,0,0,0-.37.81c0,.83,0,1.65.07,2.48a1.28,1.28,0,0,0,.66,1.09c.45.27.91.53,1.36.81.27.17.55.34.81.54a1,1,0,0,1,.36,1.18c-.36,1-.73,2-1.11,3a2.18,2.18,0,0,1-.24.42.89.89,0,0,1-.93.44l-2.14-.36a.76.76,0,0,1-.16,0,1.54,1.54,0,0,0-1.64.58c-.41.47-.86.91-1.3,1.36a1.55,1.55,0,0,0-.4,1.55c.18.69.35,1.39.49,2.09a1,1,0,0,1-.67,1.39q-1.45.69-2.94,1.32a1,1,0,0,1-1.31-.34c-.38-.48-.73-1-1.09-1.49-.77-1.08-1-1.18-2.29-1.11l-1.54.09a1.43,1.43,0,0,0-1.22.71c-.31.52-.61,1-.94,1.55a4.31,4.31,0,0,1-.6.74.72.72,0,0,1-.82.21l-3.12-1.16a3.18,3.18,0,0,1-.4-.23.89.89,0,0,1-.44-.93c.11-.7.23-1.41.34-2.12a4.62,4.62,0,0,0,.07-.65,1.12,1.12,0,0,0-.36-1c-.57-.52-1.13-1-1.69-1.58a1.24,1.24,0,0,0-1.23-.3l-2.09.48-.08,0c-.91.17-1.21,0-1.6-.79s-.85-1.88-1.23-2.84a.93.93,0,0,1,.37-1.3c.56-.43,1.13-.84,1.71-1.21a1.7,1.7,0,0,0,.84-1.65c-.05-.74-.07-1.49-.11-2.23a.93.93,0,0,0-.43-.77L131.13,105a2.09,2.09,0,0,1-1-1Zm23.63,4.14a7,7,0,0,0-7.1-7.06,7.16,7.16,0,0,0-7,7.07,7.06,7.06,0,0,0,7,7A7,7,0,0,0,153.78,107.89Z" fill="#fff"/><path d="M142.71,125a1.14,1.14,0,0,1-.44-.08l-.82-.3-2.31-.87a2,2,0,0,1-.44-.24A1.4,1.4,0,0,1,138,122l.34-2.11q0-.3.06-.6a.65.65,0,0,0-.2-.56l-1.48-1.38-.21-.2a.74.74,0,0,0-.77-.18l-1.49.34-.61.14-.1,0a1.63,1.63,0,0,1-2.15-1.07c-.48-1-.92-2.08-1.24-2.87a1.42,1.42,0,0,1,.54-1.89c.66-.5,1.21-.89,1.74-1.23a1.19,1.19,0,0,0,.61-1.2c0-.47-.05-.94-.07-1.41l0-.82a.42.42,0,0,0-.2-.38l-.76-.49c-.37-.23-.74-.46-1.1-.7a2.5,2.5,0,0,1-1.18-1.27.5.5,0,0,1,0-.16v-.27a.51.51,0,0,1,0-.17l.21-.62c.19-.54.37-1.08.56-1.61s.29-.78.45-1.16a1.6,1.6,0,0,1,1.7-1c.4,0,.81.12,1.21.19l.61.1.24,0a4,4,0,0,0,.64.07.58.58,0,0,0,.33-.08c.73-.69,1.41-1.4,2-2a.55.55,0,0,0,.08-.51l-.21-1c-.09-.41-.19-.82-.27-1.23a3.62,3.62,0,0,1-.09-1,1.3,1.3,0,0,1,.52-.92,13.72,13.72,0,0,1,3.73-1.7,1.38,1.38,0,0,1,1.56.56l.49.66c.3.41.61.82.9,1.24a1,1,0,0,0,1,.5c.52,0,1-.06,1.56-.08l.85,0a.43.43,0,0,0,.32-.22c.17-.24.33-.49.49-.75l.46-.7c.2-.31.41-.62.62-.92a1.41,1.41,0,0,1,1.67-.56c1.11.39,2.21.78,3.31,1.2a1.46,1.46,0,0,1,.91,1.58c0,.41-.12.83-.19,1.24,0,.21-.08.41-.11.61s-.08.55-.11.82a.7.7,0,0,0,.22.61l.41.39c.45.42.9.84,1.33,1.28a.79.79,0,0,0,.83.23l1.13-.26c.41-.09.82-.19,1.23-.27a1.53,1.53,0,0,1,1.87.9c.45.94.89,1.89,1.31,2.85a1.62,1.62,0,0,1-.56,2.17c-.24.19-.5.37-.76.55l-.51.36c-.28.22-.57.44-.84.68a.49.49,0,0,0-.19.42v.53c0,.64,0,1.29.06,1.94a.8.8,0,0,0,.42.69l.56.33.8.47a9.8,9.8,0,0,1,.85.58,1.47,1.47,0,0,1,.53,1.75c-.36,1-.73,2-1.11,3a2.09,2.09,0,0,1-.28.49,1.4,1.4,0,0,1-1.44.68l-2.14-.36-.2,0a1,1,0,0,0-1.14.41c-.29.34-.61.66-.93,1l-.39.39a1.06,1.06,0,0,0-.27,1.09c.18.7.35,1.4.49,2.11a1.51,1.51,0,0,1-.94,1.94c-.89.42-1.86.86-3,1.33a1.46,1.46,0,0,1-1.89-.49c-.32-.4-.62-.82-.91-1.24l-.2-.27c-.67-.94-.7-1-1.85-.9l-1.55.09a.9.9,0,0,0-.81.47l-.31.52c-.21.35-.42.71-.64,1.05a5.87,5.87,0,0,1-.66.81A1.26,1.26,0,0,1,142.71,125ZM136,116a1.66,1.66,0,0,1,1.19.49l.21.2c.49.46,1,.92,1.48,1.37a1.64,1.64,0,0,1,.52,1.35c0,.24,0,.47-.07.7l-.35,2.12a.4.4,0,0,0,.22.43,2,2,0,0,0,.31.18l2.3.86.82.31c.06,0,.14,0,.28-.09a4.41,4.41,0,0,0,.54-.67c.21-.33.41-.67.61-1l.33-.53a1.93,1.93,0,0,1,1.61-1l1.55-.09a2.4,2.4,0,0,1,2.72,1.32l.19.28c.29.4.58.8.88,1.19a.5.5,0,0,0,.72.19c1.1-.46,2-.89,2.92-1.31.47-.23.51-.31.4-.84-.14-.69-.31-1.38-.48-2.07a2,2,0,0,1,.52-2l.4-.41c.3-.3.6-.6.88-.93a2,2,0,0,1,2.13-.73H159l2.14.36c.16,0,.29,0,.43-.22a1.52,1.52,0,0,0,.19-.32q.57-1.48,1.11-3a.47.47,0,0,0-.2-.61,6.92,6.92,0,0,0-.77-.52l-.78-.46-.57-.34a1.8,1.8,0,0,1-.9-1.5c0-.65,0-1.31-.06-2v-.52a1.51,1.51,0,0,1,.54-1.21q.44-.37.9-.72l.53-.38c.24-.17.48-.33.71-.52.43-.33.47-.5.26-1q-.61-1.43-1.29-2.82a.56.56,0,0,0-.76-.36l-1.21.28-1.15.26a1.81,1.81,0,0,1-1.76-.51c-.42-.43-.86-.84-1.29-1.25l-.42-.39a1.68,1.68,0,0,1-.52-1.42c0-.3.06-.6.11-.9s.08-.42.11-.63a11.19,11.19,0,0,0,.18-1.16.47.47,0,0,0-.27-.55c-1.09-.41-2.18-.8-3.28-1.18a.42.42,0,0,0-.53.2c-.2.28-.4.58-.59.88l-.45.69-.51.77a1.39,1.39,0,0,1-1.11.66l-.85,0-1.52.07a1.93,1.93,0,0,1-1.87-.93c-.28-.41-.58-.81-.88-1.2-.16-.23-.33-.45-.49-.67a.4.4,0,0,0-.49-.18,12.5,12.5,0,0,0-3.46,1.58.94.94,0,0,0,0,.17,2.45,2.45,0,0,0,.07.71c.08.41.17.81.26,1.21s.15.64.22,1a1.49,1.49,0,0,1-.33,1.39c-.58.62-1.27,1.35-2,2.06a1.52,1.52,0,0,1-1,.35,4.49,4.49,0,0,1-.83-.09l-.22,0-.62-.11-1.15-.18a.62.62,0,0,0-.67.42c-.15.37-.3.74-.43,1.11-.19.53-.37,1.06-.55,1.6l-.19.65a1.83,1.83,0,0,0,.74.68l1.1.7.77.48a1.47,1.47,0,0,1,.66,1.18l0,.83c0,.46,0,.92.07,1.39a2.19,2.19,0,0,1-1.07,2.1c-.51.33-1,.7-1.67,1.18-.36.27-.36.37-.22.72.32.78.74,1.81,1.22,2.82.29.61.35.64,1.06.51l.67-.15c.49-.11,1-.22,1.47-.35A2.2,2.2,0,0,1,136,116Zm10.75-.54h0a7.54,7.54,0,0,1-7.49-7.52,7.43,7.43,0,0,1,2.23-5.31,7.58,7.58,0,0,1,5.19-2.26h0a7.53,7.53,0,0,1,7.6,7.55,7.19,7.19,0,0,1-2,5.18A7.53,7.53,0,0,1,146.74,115.42Zm-.09-14.09a6.58,6.58,0,0,0-4.49,2,6.5,6.5,0,0,0,4.56,11.12h0a6.5,6.5,0,0,0,4.79-2,6.24,6.24,0,0,0,1.75-4.45v0a6.54,6.54,0,0,0-6.61-6.56Z" fill="#231f20"/><path d="M161.33,73.39c.15-.45.3-.91.46-1.36l.27-.69a.69.69,0,0,1,.72-.44c.37,0,.73.12,1.09.18a4.17,4.17,0,0,0,.59.08.7.7,0,0,0,.41-.14c.42-.39.82-.81,1.22-1.23a.61.61,0,0,0,.12-.58c-.09-.45-.2-.88-.29-1.33a2.29,2.29,0,0,1,0-.52A.51.51,0,0,1,166,67a8.47,8.47,0,0,1,2.19-1,.55.55,0,0,1,.63.22c.27.39.57.76.84,1.15a.9.9,0,0,0,.86.44c.48,0,1,0,1.45-.07a.55.55,0,0,0,.44-.26l.5-.78c.15-.22.29-.45.45-.66a.56.56,0,0,1,.67-.23c.67.23,1.34.47,2,.72a.59.59,0,0,1,.36.65c0,.37-.12.74-.18,1.11,0,.17-.05.35-.07.52a.73.73,0,0,0,.23.62c.35.33.71.66,1.05,1a.8.8,0,0,0,.78.22l1.44-.32a.62.62,0,0,1,.8.38c.28.57.54,1.15.79,1.73a.67.67,0,0,1-.24,1c-.25.2-.52.37-.77.56s-.36.27-.53.42a.6.6,0,0,0-.22.5c0,.5,0,1,0,1.5a.78.78,0,0,0,.4.67c.28.16.56.32.83.49a4.2,4.2,0,0,1,.49.33.58.58,0,0,1,.22.72c-.22.6-.44,1.21-.67,1.81a2.07,2.07,0,0,1-.15.25.54.54,0,0,1-.56.27l-1.31-.22h-.1a.92.92,0,0,0-1,.35c-.25.29-.53.55-.79.82a.93.93,0,0,0-.24,1c.1.42.21.84.29,1.27a.61.61,0,0,1-.41.84c-.59.29-1.19.55-1.79.81a.59.59,0,0,1-.79-.21c-.23-.29-.45-.6-.67-.91-.46-.65-.58-.71-1.39-.67L171,84a.89.89,0,0,0-.74.43c-.19.32-.37.64-.57,1a3.94,3.94,0,0,1-.36.45.45.45,0,0,1-.5.13l-1.9-.71a1.23,1.23,0,0,1-.25-.14.55.55,0,0,1-.27-.56c.07-.43.15-.86.21-1.29a2.58,2.58,0,0,0,0-.4.67.67,0,0,0-.21-.58l-1-1a.77.77,0,0,0-.75-.18l-1.27.29h0c-.56.11-.74,0-1-.48s-.51-1.14-.75-1.73a.57.57,0,0,1,.23-.79c.34-.26.69-.51,1-.74a1,1,0,0,0,.51-1c0-.45,0-.9-.06-1.35a.59.59,0,0,0-.27-.48l-1.13-.72a1.21,1.21,0,0,1-.59-.61Zm14.37,2.52a4.28,4.28,0,0,0-4.32-4.29,4.35,4.35,0,0,0-4.22,4.3,4.28,4.28,0,0,0,4.25,4.27A4.23,4.23,0,0,0,175.7,75.91Z" fill="#fff"/><path d="M169,86.51a1.06,1.06,0,0,1-.34-.06l-.47-.18-1.43-.53a1.72,1.72,0,0,1-.31-.17,1.05,1.05,0,0,1-.52-1.08l.21-1.29a2,2,0,0,0,0-.34c0-.13,0-.16,0-.19l-.91-.85-.13-.11a.26.26,0,0,0-.28-.07l-.89.21-.39.09c-.86.16-1.26,0-1.59-.74s-.52-1.17-.76-1.76a1.06,1.06,0,0,1,.39-1.38c.35-.26.7-.52,1.07-.76a.52.52,0,0,0,.28-.54c0-.29,0-.59,0-.88l0-.49-.51-.37-.66-.43a1.7,1.7,0,0,1-.8-.88.77.77,0,0,1,0-.15v-.17a.88.88,0,0,1,0-.16l.15-.43.32-.93c.09-.24.18-.48.28-.72a1.17,1.17,0,0,1,1.24-.75l.75.12.52.09a2.15,2.15,0,0,0,.34,0l.11,0c.38-.37.77-.78,1.16-1.2,0,0,0,0,0-.13l-.13-.58c-.05-.25-.11-.5-.16-.75a2.46,2.46,0,0,1-.06-.67,1,1,0,0,1,.41-.71,8.46,8.46,0,0,1,2.32-1.06,1,1,0,0,1,1.16.42l.3.4c.18.25.37.5.55.76a.4.4,0,0,0,.41.22c.32,0,.63,0,.95,0l.52,0a5.62,5.62,0,0,0,.34-.5l.28-.43c.13-.19.25-.38.38-.56a1.06,1.06,0,0,1,1.24-.41c.68.23,1.35.47,2,.73a1.07,1.07,0,0,1,.68,1.16c0,.26-.07.51-.12.77l-.06.37a4,4,0,0,0-.07.48.24.24,0,0,0,.07.22l.24.22c.28.26.56.52.83.8a.28.28,0,0,0,.32.08l.68-.15.75-.17a1.12,1.12,0,0,1,1.36.65c.28.58.55,1.16.8,1.75a1.18,1.18,0,0,1-.39,1.55l-.47.34-.31.22a6.25,6.25,0,0,0-.5.4.09.09,0,0,0-.05.1v.31c0,.39,0,.79,0,1.19a.3.3,0,0,0,.16.26l.35.2.48.29a6.33,6.33,0,0,1,.54.36,1.09,1.09,0,0,1,.38,1.29c-.22.61-.44,1.21-.67,1.81a2.06,2.06,0,0,1-.19.34,1,1,0,0,1-1.07.5l-1.31-.22-.13,0a.45.45,0,0,0-.5.19c-.18.21-.38.41-.58.61l-.23.24a.44.44,0,0,0-.12.48c.11.43.22.86.3,1.29a1.09,1.09,0,0,1-.68,1.39c-.6.29-1.2.56-1.81.82a1.07,1.07,0,0,1-1.38-.36c-.2-.24-.38-.49-.56-.75l-.12-.17c-.36-.5-.36-.5-1-.47l-.94,0a.38.38,0,0,0-.34.19l-.19.32-.39.64a3.62,3.62,0,0,1-.42.53A1,1,0,0,1,169,86.51Zm-4.09-5.88a1.24,1.24,0,0,1,.86.35l.12.11.9.84a1.16,1.16,0,0,1,.38,1c0,.15,0,.3,0,.45l-.21,1.29.08.09.11.06,1.43.53.47.18c.08-.12.18-.24.27-.38s.25-.4.37-.61l.19-.32a1.37,1.37,0,0,1,1.14-.68l1,0a1.62,1.62,0,0,1,1.82.88l.13.19c.17.23.34.47.52.7s.09.09.09.09h0a.2.2,0,0,0,.12,0c.59-.25,1.18-.52,1.77-.8a.39.39,0,0,0,.16-.1h0a1.09,1.09,0,0,0,0-.19c-.08-.42-.18-.83-.29-1.25a1.44,1.44,0,0,1,.37-1.41l.24-.25a6.89,6.89,0,0,0,.52-.56,1.45,1.45,0,0,1,1.5-.51l1.37.23.08-.08a1.17,1.17,0,0,0,.08-.13c.23-.6.45-1.2.67-1.8,0-.06,0-.09-.06-.16s-.29-.2-.44-.3l-.47-.27-.35-.21a1.29,1.29,0,0,1-.65-1.08c0-.4,0-.81,0-1.21v-.3a1.1,1.1,0,0,1,.4-.89c.17-.16.36-.3.55-.45l.33-.23.43-.31c.19-.15.19-.15.09-.36-.25-.58-.51-1.15-.78-1.72-.06-.12-.07-.14-.24-.11l-.74.17-.7.16a1.31,1.31,0,0,1-1.25-.36c-.26-.27-.53-.52-.8-.77l-.24-.23a1.22,1.22,0,0,1-.38-1c0-.19,0-.37.08-.56l.07-.39c0-.23.08-.46.1-.69s0-.12,0-.13c-.66-.25-1.32-.49-2-.72l-.1,0c-.12.17-.24.35-.35.53l-.27.42c-.11.16-.21.32-.32.47a1,1,0,0,1-.83.49l-.52,0-.92,0a1.37,1.37,0,0,1-1.31-.65l-.53-.73-.3-.4a5.88,5.88,0,0,0-2.14.9,1,1,0,0,1,.1.33c.05.25.11.49.16.73l.13.59a1.1,1.1,0,0,1-.25,1c-.4.43-.81.85-1.24,1.26a1.2,1.2,0,0,1-.74.27,5,5,0,0,1-.54-.06l-.52-.09c-.23,0-.45-.09-.68-.11a.17.17,0,0,0-.2.13c-.1.22-.19.45-.27.67s-.21.61-.31.92l-.12.34a1,1,0,0,0,.36.29l1.13.72a1.07,1.07,0,0,1,.5.87l0,.5c0,.28,0,.57,0,.85a1.51,1.51,0,0,1-.74,1.45c-.34.23-.68.47-1,.72-.08,0-.1.08-.11.1a.82.82,0,0,0,0,.11c.23.57.47,1.14.73,1.7.1.19.14.23.14.24h0l.28,0,.42-.1.87-.2A1.45,1.45,0,0,1,164.88,80.63Zm6.54.06h0a4.77,4.77,0,0,1-4.75-4.77,4.71,4.71,0,0,1,1.41-3.37,4.91,4.91,0,0,1,3.31-1.43,4.76,4.76,0,0,1,4.82,4.78,4.52,4.52,0,0,1-1.28,3.29A4.74,4.74,0,0,1,171.42,80.69Zm0-8.57a3.79,3.79,0,0,0-2.6,1.14,3.71,3.71,0,0,0-1.11,2.66,3.77,3.77,0,0,0,3.75,3.77h0a3.71,3.71,0,0,0,2.77-1.18,3.6,3.6,0,0,0,1-2.56v0a3.77,3.77,0,0,0-3.82-3.79Z" fill="#231f20"/><path d="M179.11,59.5c.2-.59.39-1.18.6-1.76.11-.31.23-.6.35-.9a.87.87,0,0,1,.94-.57c.47,0,.94.15,1.42.23a5,5,0,0,0,.76.1.87.87,0,0,0,.53-.18c.55-.51,1.07-1.06,1.58-1.61a.81.81,0,0,0,.17-.75c-.13-.57-.26-1.14-.38-1.72a2,2,0,0,1-.06-.68.65.65,0,0,1,.22-.44,10.56,10.56,0,0,1,2.84-1.29.7.7,0,0,1,.81.29c.37.5.75,1,1.1,1.49a1.14,1.14,0,0,0,1.12.57c.62-.05,1.26-.06,1.89-.09a.72.72,0,0,0,.57-.34c.22-.33.43-.67.65-1s.38-.58.58-.86a.73.73,0,0,1,.87-.3c.87.31,1.74.61,2.6.94a.77.77,0,0,1,.47.85c-.05.48-.16,1-.23,1.44,0,.22-.07.45-.09.68a.93.93,0,0,0,.29.8c.46.43.92.86,1.37,1.31a1,1,0,0,0,1,.29l1.86-.42a.83.83,0,0,1,1,.5c.35.74.7,1.49,1,2.24a.9.9,0,0,1-.33,1.25c-.32.25-.66.47-1,.71s-.47.36-.69.55a.84.84,0,0,0-.29.65c0,.65,0,1.31.06,2a1,1,0,0,0,.52.86c.36.22.72.42,1.07.64a5.5,5.5,0,0,1,.64.43.77.77,0,0,1,.29.94c-.28.78-.58,1.57-.88,2.35a1.35,1.35,0,0,1-.19.33.7.7,0,0,1-.73.35l-1.7-.29-.12,0a1.22,1.22,0,0,0-1.3.46c-.32.38-.68.72-1,1.07a1.22,1.22,0,0,0-.32,1.23c.14.55.27,1.1.39,1.66a.81.81,0,0,1-.54,1.09c-.76.37-1.54.72-2.33,1a.77.77,0,0,1-1-.27c-.3-.38-.58-.78-.86-1.18-.61-.85-.76-.93-1.81-.88l-1.22.07a1.13,1.13,0,0,0-1,.56c-.25.42-.49.83-.75,1.24a4.41,4.41,0,0,1-.47.58.58.58,0,0,1-.65.17c-.82-.31-1.65-.61-2.47-.93a1.45,1.45,0,0,1-.32-.18.7.7,0,0,1-.35-.73c.09-.56.19-1.12.28-1.68,0-.16,0-.34.05-.51a.92.92,0,0,0-.29-.76l-1.33-1.24a1,1,0,0,0-1-.24l-1.65.38-.06,0c-.73.13-1,0-1.27-.63s-.67-1.49-1-2.25a.74.74,0,0,1,.29-1c.44-.33.89-.66,1.36-1a1.33,1.33,0,0,0,.66-1.3c0-.58-.06-1.17-.09-1.76a.72.72,0,0,0-.34-.61l-1.47-.94a1.62,1.62,0,0,1-.77-.8Zm18.69,3.28a5.57,5.57,0,0,0-5.62-5.58,5.64,5.64,0,0,0-5.49,5.59,5.56,5.56,0,1,0,11.11,0Z" fill="#fff"/><path d="M189,76.41a1.27,1.27,0,0,1-.38-.07l-.76-.28-1.72-.65a2.47,2.47,0,0,1-.37-.2A1.21,1.21,0,0,1,185.2,74l.27-1.67a3.75,3.75,0,0,0,.05-.47.41.41,0,0,0-.12-.36l-1.21-1.12-.14-.13a.49.49,0,0,0-.51-.12l-1.16.28-.5.11c-1,.2-1.49,0-1.89-.89-.31-.64-.61-1.34-1-2.27a1.23,1.23,0,0,1,.46-1.62c.45-.34.91-.67,1.38-1a.83.83,0,0,0,.44-.84c0-.37,0-.73-.06-1.1l0-.67a.23.23,0,0,0-.11-.22l-.62-.39-.85-.55a2.07,2.07,0,0,1-1-1.07.77.77,0,0,1,0-.15V59.5a.88.88,0,0,1,0-.16l.18-.52c.14-.41.28-.83.43-1.25s.24-.62.36-.93a1.38,1.38,0,0,1,1.45-.87c.33,0,.65.09,1,.15l.68.12.47.06a.52.52,0,0,0,.21-.05c.52-.5,1-1,1.55-1.58a.35.35,0,0,0,0-.3c-.06-.26-.11-.51-.17-.76s-.15-.65-.21-1a2.52,2.52,0,0,1-.07-.83,1.1,1.1,0,0,1,.45-.81,10.48,10.48,0,0,1,3-1.35,1.2,1.2,0,0,1,1.35.48l.39.52c.24.32.48.65.71,1a.66.66,0,0,0,.67.35q.62,0,1.23-.06l.67,0s.1,0,.18-.12l.38-.58.37-.58.49-.72a1.22,1.22,0,0,1,1.44-.48c.88.3,1.75.62,2.62.95a1.25,1.25,0,0,1,.79,1.35,8.83,8.83,0,0,1-.16,1c0,.15-.05.31-.08.47s-.06.43-.08.64a.44.44,0,0,0,.13.4l.31.29c.37.34.73.68,1.07,1a.54.54,0,0,0,.56.15l.91-.2,1-.22a1.33,1.33,0,0,1,1.6.77c.36.75.7,1.5,1,2.26A1.38,1.38,0,0,1,205,60l-.61.44c-.14.09-.27.19-.4.29a8.38,8.38,0,0,0-.66.52.32.32,0,0,0-.12.26v.43c0,.51,0,1,.05,1.51a.52.52,0,0,0,.28.46l.44.27.63.37c.24.15.47.3.69.47a1.25,1.25,0,0,1,.45,1.5c-.29.79-.58,1.57-.88,2.36a2.48,2.48,0,0,1-.22.4,1.22,1.22,0,0,1-1.25.59l-1.7-.28-.15,0a.75.75,0,0,0-.81.29c-.23.27-.48.53-.74.79l-.3.31a.74.74,0,0,0-.2.76c.15.56.28,1.11.4,1.68a1.29,1.29,0,0,1-.81,1.64c-.77.38-1.56.73-2.35,1.06a1.28,1.28,0,0,1-1.62-.42c-.25-.32-.49-.65-.73-1l-.15-.21c-.51-.71-.5-.71-1.37-.67l-1.23.07a.67.67,0,0,0-.56.32l-.24.41c-.17.28-.33.56-.51.84a4.38,4.38,0,0,1-.53.66A1.14,1.14,0,0,1,189,76.41Zm-5.32-7.35a1.47,1.47,0,0,1,1,.41l.14.13c.39.38.79.75,1.19,1.12a1.4,1.4,0,0,1,.45,1.15,5,5,0,0,1-.06.56l-.27,1.68c0,.07,0,.14.13.23a1.17,1.17,0,0,0,.22.14l1.71.64.76.28s.05,0,.11-.05a4.31,4.31,0,0,0,.41-.5c.17-.27.33-.54.49-.81l.25-.41a1.64,1.64,0,0,1,1.36-.81l1.22-.07a2,2,0,0,1,2.25,1.09l.15.21c.22.32.45.64.69,1s.24.21.45.12c.78-.33,1.55-.67,2.31-1,.32-.15.33-.17.26-.54-.11-.55-.25-1.09-.38-1.63a1.71,1.71,0,0,1,.43-1.7l.32-.33q.36-.34.69-.72a1.68,1.68,0,0,1,1.79-.62l1.79.29c.07,0,.14,0,.23-.12a1.34,1.34,0,0,0,.15-.24c.29-.78.59-1.56.87-2.35.05-.13.05-.23-.12-.37s-.4-.27-.6-.39-.41-.25-.62-.37l-.45-.27a1.5,1.5,0,0,1-.76-1.27c0-.51,0-1-.05-1.53v-.44a1.29,1.29,0,0,1,.47-1c.23-.2.47-.39.71-.58l.43-.3.55-.4c.3-.24.32-.32.18-.66-.33-.75-.67-1.49-1-2.23-.11-.22-.2-.29-.49-.22l-.95.21-.91.21a1.53,1.53,0,0,1-1.49-.43c-.34-.34-.69-.67-1-1l-.31-.3a1.44,1.44,0,0,1-.45-1.2c0-.24.06-.48.09-.72l.09-.49c.06-.31.11-.61.14-.92s-.1-.31-.15-.33c-.85-.33-1.72-.63-2.59-.93-.09,0-.18,0-.3.12s-.31.45-.46.68l-.37.57-.39.6a1.22,1.22,0,0,1-1,.56l-.68,0q-.6,0-1.2.06a1.67,1.67,0,0,1-1.57-.78c-.22-.33-.45-.64-.68-1l-.4-.54c-.09-.11-.15-.14-.28-.1a9.89,9.89,0,0,0-2.71,1.24s0,0,0,.06a2,2,0,0,0,.06.53c.06.32.13.63.2.95L186,54a1.35,1.35,0,0,1-.29,1.2c-.52.55-1,1.1-1.6,1.63a1.39,1.39,0,0,1-.87.31,3.42,3.42,0,0,1-.67-.08l-.67-.12-.91-.14a.37.37,0,0,0-.41.27c-.12.29-.24.58-.35.87l-.42,1.25-.15.47c.08.18.26.3.53.47l.86.55.62.39a1.25,1.25,0,0,1,.57,1l0,.69c0,.35,0,.71.06,1.07a1.81,1.81,0,0,1-.89,1.75c-.46.3-.89.61-1.32.94-.24.18-.24.21-.14.45.37.9.66,1.59,1,2.22.21.44.21.44.73.35l.54-.13,1.14-.27A2.09,2.09,0,0,1,183.72,69.06Zm8.51-.22h0a6.05,6.05,0,0,1-6-6.05A6,6,0,0,1,188,58.51a6.16,6.16,0,0,1,4.2-1.81,6.05,6.05,0,0,1,6.12,6.07,5.8,5.8,0,0,1-1.63,4.17A6,6,0,0,1,192.23,68.84Zm-.07-11.14a5.11,5.11,0,0,0-3.48,1.52,5,5,0,0,0,3.54,8.62h0a5,5,0,0,0,3.71-1.58,4.85,4.85,0,0,0,1.36-3.45v0a5.06,5.06,0,0,0-5.12-5.08Z" fill="#231f20"/><line x1="72.7" y1="212.76" x2="113.24" y2="190.36" fill="#fff"/><path d="M72.7,213.26a.49.49,0,0,1-.24-.93L113,189.92a.5.5,0,0,1,.68.2.5.5,0,0,1-.19.68L72.94,213.2A.53.53,0,0,1,72.7,213.26Z" fill="#d1d3d4"/><line x1="72.7" y1="190.36" x2="113.24" y2="212.76" fill="#fff"/><path d="M113.24,213.26a.53.53,0,0,1-.24-.06L72.46,190.8a.5.5,0,1,1,.48-.88l40.55,22.41a.49.49,0,0,1,.19.68A.5.5,0,0,1,113.24,213.26Z" fill="#d1d3d4"/><line x1="72.7" y1="235.09" x2="113.24" y2="212.69" fill="#fff"/><path d="M72.7,235.59a.49.49,0,0,1-.44-.26.49.49,0,0,1,.2-.67L113,212.25a.5.5,0,0,1,.68.2.5.5,0,0,1-.19.68l-40.55,22.4A.53.53,0,0,1,72.7,235.59Z" fill="#d1d3d4"/><line x1="72.7" y1="212.69" x2="113.24" y2="235.09" fill="#fff"/><path d="M113.24,235.59a.53.53,0,0,1-.24-.06l-40.54-22.4a.5.5,0,1,1,.48-.88l40.55,22.41a.48.48,0,0,1,.19.67A.49.49,0,0,1,113.24,235.59Z" fill="#d1d3d4"/><line x1="72.7" y1="257.42" x2="113.24" y2="235.02" fill="#fff"/><path d="M72.7,257.92a.49.49,0,0,1-.44-.26.49.49,0,0,1,.2-.67L113,234.58a.5.5,0,0,1,.68.2.5.5,0,0,1-.19.68l-40.55,22.4A.53.53,0,0,1,72.7,257.92Z" fill="#d1d3d4"/><line x1="72.7" y1="235.02" x2="113.24" y2="257.42" fill="#fff"/><path d="M113.24,257.92a.53.53,0,0,1-.24-.06l-40.54-22.4a.5.5,0,0,1,.48-.88L113.49,257a.48.48,0,0,1,.19.67A.49.49,0,0,1,113.24,257.92Z" fill="#d1d3d4"/><rect x="69.88" y="181.34" width="46.18" height="9.38" fill="#fff"/><path d="M116.06,191.22H69.88a.51.51,0,0,1-.5-.5v-9.38a.5.5,0,0,1,.5-.5h46.18a.5.5,0,0,1,.5.5v9.38A.5.5,0,0,1,116.06,191.22Zm-45.68-1h45.18v-8.38H70.38Z" fill="#d1d3d4"/><path d="M346.38,257.72H61.62a.51.51,0,0,1-.5-.5.5.5,0,0,1,.5-.5H346.38a.5.5,0,0,1,.5.5A.51.51,0,0,1,346.38,257.72Z" fill="#d1d3d4"/><path d="M286.29,250.63c-1,0-8.72.83-12.32,2.62s-4.38,1.93-3.65,4.34,7.07,3,11.89,2.1a32.34,32.34,0,0,0,8.9-3.23Z" fill="#fff"/><path d="M277.77,260.54c-3.67,0-7.28-.79-7.89-2.81-.78-2.6.19-3.07,3.07-4.49l.82-.4c3.68-1.83,11.41-2.73,12.53-2.67a.46.46,0,0,1,.35.16l4.81,5.84a.45.45,0,0,1-.12.68,32.58,32.58,0,0,1-9,3.29A24.79,24.79,0,0,1,277.77,260.54Zm8.31-9.45c-1.58.06-8.59.92-11.91,2.57l-.81.4c-2.92,1.43-3.16,1.55-2.6,3.4s6.19,2.76,11.37,1.78a32.26,32.26,0,0,0,8.27-2.92Z" fill="#231f20"/><path d="M285.26,250.61a2.78,2.78,0,0,0-2.08,3.13c.34,2.57,5.76,2.67,6.07,2.68S285.26,250.61,285.26,250.61Z" fill="#fff"/><path d="M289.25,256.88h0c-1,0-6.14-.27-6.51-3.08a3.19,3.19,0,0,1,2.43-3.64.47.47,0,0,1,.47.17c4.29,5.81,4.2,6,4,6.29A.5.5,0,0,1,289.25,256.88Zm-4.16-5.74a2.23,2.23,0,0,0-1.45,2.54c.19,1.51,2.86,2.1,4.85,2.25C287.81,254.89,286.28,252.76,285.09,251.14Z" fill="#231f20"/><path d="M325.43,256.48c.16.08,1.64,2,8.06,2.76s8.81,2.15,10.24-1.23.45-5.55-2.72-6.52-11.89-1.76-13.6-.15S325.43,256.48,325.43,256.48Z" fill="#fff"/><path d="M340.56,260.63a24.18,24.18,0,0,1-3.51-.41c-1.05-.17-2.24-.36-3.62-.53-2.69-.32-6.31-1.07-8.21-2.8a.44.44,0,0,1-.24-.45c0-.15.3-3.71,2.12-5.43s11-.89,14,.05a5,5,0,0,1,3.32,2.49,5.67,5.67,0,0,1-.32,4.64A3.45,3.45,0,0,1,340.56,260.63Zm-14.65-4.35c1.75,1.52,5.11,2.2,7.63,2.5,1.4.17,2.6.37,3.65.54,4,.64,5.18.73,6.12-1.49a4.81,4.81,0,0,0,.33-3.89,4.19,4.19,0,0,0-2.76-2c-3.19-1-11.66-1.67-13.15-.25C326.4,252.93,326,255.51,325.91,256.28Z" fill="#231f20"/><path d="M323.38,255.1s2.92,2.43,4.86,2.14,4.63-1.34,3.55-3.45-8.05-3.35-8.05-3.35Z" fill="#fff"/><path d="M327.92,257.72c-2.08,0-4.71-2.17-4.83-2.27a.48.48,0,0,1-.16-.39l.36-4.66a.44.44,0,0,1,.17-.32.49.49,0,0,1,.37-.09c.73.13,7.21,1.35,8.36,3.59a2.13,2.13,0,0,1,.08,2c-.76,1.49-3.23,2-4,2.07Zm-4.06-2.83c.9.71,3,2.09,4.31,1.9s2.84-.71,3.29-1.59a1.24,1.24,0,0,0-.08-1.2c-.74-1.44-5.08-2.58-7.22-3Z" fill="#231f20"/><path d="M288.37,234.66s3.07,12,14.29,14.28,17,1.68,21-5.89,1.34-12.2,1.34-12.2l-35.4-.71Z" fill="#231f20"/><path d="M311.93,250.62a47.92,47.92,0,0,1-9.37-1.2c-11.4-2.32-14.65-14.52-14.68-14.64a.57.57,0,0,1,0-.26l1.23-4.51a.47.47,0,0,1,.49-.37l35.4.71a.46.46,0,0,1,.42.25c.12.2,2.72,5-1.33,12.68C321.25,248.69,317.45,250.62,311.93,250.62Zm-23-16c.36,1.26,3.69,11.72,13.86,13.8,10.71,2.18,16.5,1.9,20.46-5.64,3.27-6.24,1.9-10.44,1.46-11.47l-34.7-.69Z" fill="#231f20"/><path d="M318,183.92s1.51-5.91.29-9.31c-.76-2.1-2.49-2.9-4.55-3.15-2.66-.32-4.21-1.47-6.58-2.67a7.58,7.58,0,0,0-4.12-.85,5.4,5.4,0,0,0-3.68,1.9,5.77,5.77,0,0,0-1,4.69c.52,2.74,1.87,5.25,4.86,5C307.15,179.11,313.93,185.19,318,183.92Z" fill="#fff"/><path d="M316.78,184.59c-2.16,0-4.68-1.24-7.14-2.44s-4.71-2.31-6.38-2.16c-2.79.26-4.7-1.64-5.41-5.37a6.34,6.34,0,0,1,1.12-5.1,5.93,5.93,0,0,1,4-2.08,8.06,8.06,0,0,1,4.39.9l1.45.77a13,13,0,0,0,5,1.86c2.6.31,4.23,1.45,5,3.47,1.26,3.51-.21,9.36-.27,9.6a.5.5,0,0,1-.34.36A4.73,4.73,0,0,1,316.78,184.59Zm1.22-.67h0ZM303.58,179c1.87,0,4.12,1.1,6.5,2.27,2.71,1.33,5.49,2.7,7.51,2.26.27-1.2,1.24-5.92.23-8.73-.6-1.65-1.92-2.55-4.14-2.82a13.83,13.83,0,0,1-5.32-2c-.45-.24-.92-.5-1.43-.75a7,7,0,0,0-3.84-.81,4.91,4.91,0,0,0-3.34,1.72,5.26,5.26,0,0,0-.91,4.28c.61,3.25,2.06,4.78,4.33,4.57A2.75,2.75,0,0,1,303.58,179Z" fill="#231f20"/><path d="M327.66,234.77s5.8-18.75,5-30.49-8.43-12.62-11.09-12.83-16.73-2.39-22,3.82S285,230.56,285,230.56Z" fill="#a44200" class="target-color"/><path d="M306.71,191.48l.91,6.27a4.66,4.66,0,0,0,5.93,1.6c3.95-1.64,4-4.67,4-4.67L315.7,183.1s-3.63-1.5-5.38-8.64c0,0-9,.51-8.52,3.9,0,0-.23,6.37.67,9.51S306.65,191.44,306.71,191.48Z" fill="#fff"/><path d="M311.4,200.31a5.2,5.2,0,0,1-4.2-2.3.44.44,0,0,1-.07-.19l-.87-5.94A5.79,5.79,0,0,1,302,188c-.91-3.18-.7-9.4-.69-9.67a2.18,2.18,0,0,1,.52-1.71c1.85-2.27,8.2-2.66,8.47-2.67a.48.48,0,0,1,.52.38c1.66,6.76,5.05,8.28,5.08,8.29a.5.5,0,0,1,.3.39l1.88,11.58c0,.23-.12,3.47-4.33,5.21A6,6,0,0,1,311.4,200.31Zm-3.3-2.74a4.14,4.14,0,0,0,5.26,1.32c3.58-1.49,3.71-4.11,3.72-4.22l-1.83-11.24c-.89-.49-3.74-2.48-5.31-8.45-2,.16-6.14.79-7.34,2.28a1.25,1.25,0,0,0-.3,1c0,.15-.22,6.42.65,9.44a4.89,4.89,0,0,0,3.8,3.24l.21.07a.54.54,0,0,1,.25.37Z" fill="#231f20"/><path d="M313.26,183.27a2.75,2.75,0,0,1,.68-1.58,5,5,0,0,1,1.33-.95,2,2,0,0,1,.84-.29,1.67,1.67,0,0,1,.62.12,2.11,2.11,0,0,1,1.16.88,2.45,2.45,0,0,1,.23,1.17,4.71,4.71,0,0,1-.12,1.3,3.3,3.3,0,0,1-4,2.38" fill="#fff"/><path d="M314.8,186.91a3.6,3.6,0,0,1-1-.13.5.5,0,0,1,.26-1,2.79,2.79,0,0,0,3.43-2,4.43,4.43,0,0,0,.1-1.17,2,2,0,0,0-.17-.93,1.63,1.63,0,0,0-.89-.66,1.26,1.26,0,0,0-.43-.09,1.58,1.58,0,0,0-.62.23,4.52,4.52,0,0,0-1.2.85,2.25,2.25,0,0,0-.55,1.29.5.5,0,0,1-1-.09,3.27,3.27,0,0,1,.81-1.87A5.41,5.41,0,0,1,315,180.3a2.51,2.51,0,0,1,1.06-.35,2.09,2.09,0,0,1,.81.15,2.59,2.59,0,0,1,1.42,1.11,3,3,0,0,1,.3,1.4,5.53,5.53,0,0,1-.13,1.43,3.87,3.87,0,0,1-1.76,2.35A3.83,3.83,0,0,1,314.8,186.91Z" fill="#231f20"/><path d="M307.6,181.48s-1.78,3.5-1.19,4,2,0,2,0" fill="#fff"/><path d="M307.14,186.19a1.6,1.6,0,0,1-1.06-.33c-.22-.19-.88-.76,1.07-4.6a.49.49,0,0,1,.67-.22.49.49,0,0,1,.22.67,11.09,11.09,0,0,0-1.25,3.42,2.33,2.33,0,0,0,1.41-.17.5.5,0,0,1,.37.93A4.24,4.24,0,0,1,307.14,186.19Zm-.35-1h0Z" fill="#231f20"/><ellipse cx="310.33" cy="180.66" rx="0.54" ry="0.76" transform="translate(-13.65 25.82) rotate(-4.66)" fill="#231f20"/><ellipse cx="304.75" cy="181.43" rx="0.54" ry="0.76" transform="translate(-12.64 23.15) rotate(-4.26)" fill="#231f20"/><path d="M308.06,189a8.31,8.31,0,0,1-3.11-.68.49.49,0,0,1-.24-.66.5.5,0,0,1,.66-.25s2.57,1.15,4.34.23a3.52,3.52,0,0,0,1.67-2.69.5.5,0,1,1,1,.18,4.14,4.14,0,0,1-4.3,3.87Z" fill="#231f20"/><path d="M306.71,191.48s4,.33,6.14-1.32c0,0-1.77,5.63-5.51,5.62Z" fill="#231f20"/><path d="M307.35,196.28a.52.52,0,0,1-.51-.43l-.63-4.3a.49.49,0,0,1,.14-.41.47.47,0,0,1,.4-.16s3.87.3,5.8-1.21a.5.5,0,0,1,.78.54C313.25,190.56,311.4,196.28,307.35,196.28Zm-.06-4.28.48,3.25c2-.27,3.39-2.49,4.08-3.95A12.27,12.27,0,0,1,307.29,192Z" fill="#231f20"/><path d="M329.07,194.46c3.21.64,15.67,31.09,11.13,34.45-7.08,5.24-31.25-.68-31.25-.68l2.16-9.32s15.6.74,15.89-2.46-8.72-18.23-7.46-20.42S329.07,194.46,329.07,194.46Z" fill="#a44200" class="target-color"/><path d="M312.73,222.08a35.36,35.36,0,0,1-7.76-.54,23.75,23.75,0,0,0-5.78-.78,22.06,22.06,0,0,0-7.52,1.56.53.53,0,0,0-.25.17c-.24.31.3.63.69.65a10.16,10.16,0,0,0,3.06-.32,29.29,29.29,0,0,0-7,3.53c-.25.17-.52.44-.41.71s.61.24.93.1l5.63-2.44a14.26,14.26,0,0,0-4,2.33c-.17.14-.36.34-.31.56s.63.31,1,.15a32.62,32.62,0,0,0,4.91-2.87l-3.5,2.58c-.05.28.24.52.52.54a1.56,1.56,0,0,0,.8-.27l3.89-2.14-2.43,1.63c-.38.26-.82.67-.64,1.1s.95.36,1.45.15a29.1,29.1,0,0,1,6.2-1.78,10.2,10.2,0,0,1,2.3-.41,19.35,19.35,0,0,1,3.48.83c1.73.42,3.46.86,5.19,1.3" fill="#fff"/><path d="M295.18,229.13a1.44,1.44,0,0,1-.51-.09.94.94,0,0,1-.53-.54.81.81,0,0,1-.08-.41l-.1,0a1.79,1.79,0,0,1-1,.32,1,1,0,0,1-.77-.39.89.89,0,0,1-.15-.29l-.79.39a1.52,1.52,0,0,1-1.22.07.75.75,0,0,1-.41-.55.79.79,0,0,1,0-.41l-.71.3a1.47,1.47,0,0,1-1.09.09.78.78,0,0,1-.44-.43c-.09-.21-.2-.74.57-1.27a29.63,29.63,0,0,1,4.13-2.37A1.38,1.38,0,0,1,291,223a.71.71,0,0,1,.08-.74,1,1,0,0,1,.45-.31,22.08,22.08,0,0,1,7.67-1.59,20.79,20.79,0,0,1,5.19.64l.7.15a36.17,36.17,0,0,0,7.66.52h0a.45.45,0,0,1,.45.45.44.44,0,0,1-.44.46,36.2,36.2,0,0,1-7.86-.54l-.71-.15a20.2,20.2,0,0,0-5-.62,21.25,21.25,0,0,0-7.16,1.45l.1,0a10,10,0,0,0,2.92-.31.44.44,0,0,1,.55.3.46.46,0,0,1-.29.57,29.21,29.21,0,0,0-6.87,3.48l-.1.08.19-.07,4.35-1.88c.42-.21.86-.4,1.3-.57a.48.48,0,0,1,.59.26.47.47,0,0,1-.24.59l-1.26.55a13.47,13.47,0,0,0-2.65,1.71h0a.45.45,0,0,0,.18-.07,31.18,31.18,0,0,0,4.84-2.82.46.46,0,0,1,.54.74l-3.1,2.28a1.52,1.52,0,0,0,.43-.2l3.89-2.14a.45.45,0,0,1,.61.16.46.46,0,0,1-.13.62l-2.43,1.63c-.38.25-.51.47-.48.54a1.12,1.12,0,0,0,.85-.09,29.32,29.32,0,0,1,6.3-1.81c.25,0,.49-.11.73-.17a5.36,5.36,0,0,1,1.67-.25,10.85,10.85,0,0,1,2.52.55c.36.1.71.21,1.05.29l5.19,1.3a.47.47,0,0,1,.33.56.46.46,0,0,1-.56.33l-5.18-1.3-1.09-.31a10.83,10.83,0,0,0-2.31-.51,5,5,0,0,0-1.39.22c-.26.07-.53.14-.8.19a28.3,28.3,0,0,0-6.11,1.75A2.73,2.73,0,0,1,295.18,229.13Z" fill="#231f20"/><path d="M301.23,198c-.88.86-3.32,14.54-4.24,21" fill="#fff"/><path d="M297,219.42h-.07a.45.45,0,0,1-.39-.51c.58-4,3.22-20.15,4.38-21.27a.45.45,0,0,1,.65,0,.46.46,0,0,1,0,.64c-.75.93-3.09,13.58-4.11,20.75A.46.46,0,0,1,297,219.42Z" fill="#231f20"/><path d="M320.71,231.77h-.1l-7.56-1.45a.5.5,0,0,1-.4-.49l-.07-9.09a.5.5,0,0,1,.46-.5l13.49-1.12L321,198.49a.5.5,0,1,1,1-.26l5.69,21.2a.49.49,0,0,1-.44.63l-13.62,1.13.06,8.21,7.15,1.38a.5.5,0,0,1,.4.59A.51.51,0,0,1,320.71,231.77Z" fill="#231f20"/><polygon points="278.67 233.99 272.09 216.4 298.94 216.93 304.96 236.99 278.67 233.99" fill="#fff"/><path d="M305,237.49h-.06l-26.29-3a.49.49,0,0,1-.41-.32l-6.58-17.6a.5.5,0,0,1,.06-.46.48.48,0,0,1,.42-.21l26.85.53a.5.5,0,0,1,.47.35l6,20.07a.48.48,0,0,1-.1.46A.46.46,0,0,1,305,237.49Zm-25.93-4,25.23,2.88-5.69-19-25.75-.51Z" fill="#231f20"/><path d="M280.1,234.15s-7.29,5.92-4.71,11.35,49.08,11.62,49.08,11.62l2.1-7.09S290.06,231.39,280.1,234.15Z" fill="#231f20"/><path d="M324.47,257.62h-.07c-.11,0-11.77-1.57-23.59-3.78-24.15-4.5-25.45-7.22-25.87-8.12-2.72-5.71,4.53-11.69,4.84-11.94a.46.46,0,0,1,.18-.1c10-2.79,45.34,15.15,46.83,15.91a.5.5,0,0,1,.26.59l-2.1,7.09A.5.5,0,0,1,324.47,257.62Zm-44.14-23c-.76.65-6.73,6-4.49,10.67,1.79,3.77,29.68,8.79,48.27,11.29l1.86-6.28C322.12,248.35,289.61,232.22,280.33,234.61Z" fill="#231f20"/><path d="M329,231.43s-36.15,14.62-45.12,18.48l5.22,8.06s33.38-.65,43-9S341,226.58,329,231.43Z" fill="#231f20"/><path d="M289.09,258.47a.5.5,0,0,1-.42-.23l-5.22-8.06a.52.52,0,0,1-.06-.42.51.51,0,0,1,.28-.31c8.87-3.81,44.77-18.33,45.13-18.48,4.33-1.75,7.75-1.24,9.38,1.41,2.29,3.71.49,11.39-5.81,16.92-9.6,8.41-41.9,9.14-43.27,9.17Zm-4.48-8.34,4.74,7.33c3.23-.09,33.49-1.14,42.36-8.91,5.93-5.19,7.69-12.28,5.62-15.64-1.37-2.23-4.27-2.59-8.16-1h0C328.82,232,294.3,246,284.61,250.13ZM329,231.44h0Z" fill="#231f20"/><path d="M278.54,227a1.28,1.28,0,0,1-.26.57l-.71,1a.76.76,0,0,1,1.05-.52,1.23,1.23,0,0,1,.64,1.11,3.59,3.59,0,0,1-.31,1.32c-.5,1.29-1.63,3.19-3.27,2.21-1.11-.67-1.41-3-1.57-4.19-.31-2.31.39-5.27,3.36-4.82a5.64,5.64,0,0,1-1.22,3.11C276.73,226.33,278.67,225.61,278.54,227Z" fill="#fff"/><path d="M276.57,233.43a2.21,2.21,0,0,1-1.12-.34c-1.29-.77-1.61-3.18-1.79-4.48-.2-1.52,0-3.49,1.11-4.6a3.08,3.08,0,0,1,2.77-.77.44.44,0,0,1,.39.48,6.07,6.07,0,0,1-.52,2.05,1.66,1.66,0,0,1,1,.08A1,1,0,0,1,279,227a1.32,1.32,0,0,1-.23.62l0,0a1.66,1.66,0,0,1,.92,1.51,4,4,0,0,1-.34,1.49,4.46,4.46,0,0,1-2.2,2.67A1.83,1.83,0,0,1,276.57,233.43Zm.32-9.33a2,2,0,0,0-1.48.56,4.74,4.74,0,0,0-.85,3.79c.14,1,.45,3.31,1.36,3.86a1.16,1.16,0,0,0,1,.15,3.56,3.56,0,0,0,1.63-2.14,3.14,3.14,0,0,0,.29-1.14.8.8,0,0,0-.38-.7.39.39,0,0,0-.24,0l-.23.36a.47.47,0,0,1-.54.17.45.45,0,0,1-.3-.47,1.06,1.06,0,0,1,.43-.74l.35-.52a.93.93,0,0,0,.18-.36h0c0-.1,0-.22-.05-.25a2,2,0,0,0-1.46.46.46.46,0,0,1-.68-.61A5.23,5.23,0,0,0,277,224.1Z" fill="#231f20"/><path d="M288.68,248.53a.52.52,0,0,1-.48-.33.51.51,0,0,1,.29-.67c.19-.07,19.36-7.49,23.5-10a.52.52,0,0,1,.54.88c-4.22,2.58-22.87,9.81-23.67,10.11A.39.39,0,0,1,288.68,248.53Z" fill="#fff"/><rect x="280.32" y="63.63" width="60.69" height="62.88" fill="#fff"/><path d="M341,127H280.32a.5.5,0,0,1-.5-.5V63.63a.5.5,0,0,1,.5-.5H341a.5.5,0,0,1,.5.5v62.88A.5.5,0,0,1,341,127Zm-60.19-1h59.69V64.13H280.82Z" fill="#d1d3d4"/><path d="M292.07,82.68a3.48,3.48,0,1,1,3.47-3.48A3.48,3.48,0,0,1,292.07,82.68Zm0-6a2.48,2.48,0,1,0,2.47,2.47A2.48,2.48,0,0,0,292.07,76.73Z" fill="#d1d3d4"/><path d="M304.32,74.8a3.48,3.48,0,1,1,3.48-3.47A3.47,3.47,0,0,1,304.32,74.8Zm0-6a2.48,2.48,0,1,0,2.48,2.48A2.48,2.48,0,0,0,304.32,68.85Z" fill="#d1d3d4"/><path d="M329.7,121.53a3.48,3.48,0,1,1,3.47-3.47A3.47,3.47,0,0,1,329.7,121.53Zm0-6a2.48,2.48,0,1,0,2.47,2.48A2.48,2.48,0,0,0,329.7,115.58Z" fill="#d1d3d4"/><path d="M329.7,82.68a3.48,3.48,0,1,1,3.47-3.48A3.48,3.48,0,0,1,329.7,82.68Zm0-6a2.48,2.48,0,1,0,2.47,2.47A2.48,2.48,0,0,0,329.7,76.73Z" fill="#d1d3d4"/><path d="M298.27,112.23a3.48,3.48,0,1,1,3.48-3.47A3.48,3.48,0,0,1,298.27,112.23Zm0-6a2.48,2.48,0,1,0,2.48,2.48A2.48,2.48,0,0,0,298.27,106.28Z" fill="#d1d3d4"/><path d="M312.55,113.33a3.48,3.48,0,1,1,3.47-3.47A3.47,3.47,0,0,1,312.55,113.33Zm0-6a2.48,2.48,0,1,0,2.47,2.48A2.48,2.48,0,0,0,312.55,107.38Z" fill="#d1d3d4"/><path d="M329.7,115.58a.5.5,0,0,1-.5-.5V96.43H292.07a.5.5,0,0,1-.5-.5V82.18a.5.5,0,0,1,1,0V95.43H329.7a.5.5,0,0,1,.5.5v19.15A.5.5,0,0,1,329.7,115.58Z" fill="#d1d3d4"/><path d="M298.2,106.28h0a.49.49,0,0,1-.49-.51c.06-3.4.12-8.93,0-9.66a.48.48,0,0,1,0-.18.52.52,0,0,1,.86-.35c.18.19.31.32.14,10.21A.51.51,0,0,1,298.2,106.28Z" fill="#d1d3d4"/><path d="M312.55,107.38a.5.5,0,0,1-.5-.5V79.2a.5.5,0,0,1,.5-.5h14.17a.5.5,0,0,1,.5.5.5.5,0,0,1-.5.5H313.05v27.18A.5.5,0,0,1,312.55,107.38Z" fill="#d1d3d4"/><path d="M312.55,87.23h-8.23a.5.5,0,0,1-.5-.5V74.3a.5.5,0,0,1,1,0V86.23h7.73a.5.5,0,0,1,0,1Z" fill="#d1d3d4"/><path d="M306.07,118.56H290a.5.5,0,0,1,0-1h16.1a.5.5,0,0,1,0,1Z" fill="#d1d3d4"/><path d="M302.05,121.53H290a.5.5,0,0,1-.5-.5.5.5,0,0,1,.5-.5h12.08a.51.51,0,0,1,.5.5A.5.5,0,0,1,302.05,121.53Z" fill="#d1d3d4"/><path d="M91.62,46s-3.29-2.48-6.9,1c-4,3.87-5,12.24-8.4,17.07C72,70.26,66,75.37,63.35,82.61A28.58,28.58,0,0,0,62,94.73a24.65,24.65,0,0,0,3.86,12.1c2.43,3.53,6.37,6.18,10.66,6.34,6.27.23,11.64-4.75,14.51-10.34,3-5.76,3.75-12,7.48-17.27a37.72,37.72,0,0,0,6.72-17.94c1.4-10.74-3-22.33-7.07-24.14S91.62,46,91.62,46Z" fill="#fff"/><path d="M76.9,113.68h-.44a14.46,14.46,0,0,1-11-6.55,25.08,25.08,0,0,1-3.95-12.35,29,29,0,0,1,1.42-12.33c1.8-4.93,5.15-8.93,8.4-12.79,1.58-1.88,3.21-3.82,4.63-5.84a34.48,34.48,0,0,0,3.54-7.71c1.29-3.54,2.63-7.2,4.92-9.43,3.07-3,6-1.94,7.1-1.35.79-1.12,3.25-3.9,6.86-2.3,4.4,2,8.75,14,7.35,24.66a38.31,38.31,0,0,1-6.8,18.17c-2.14,3-3.28,6.33-4.49,9.83a57.11,57.11,0,0,1-3,7.38C88.9,108,83.6,113.68,76.9,113.68Zm11.95-68a5.35,5.35,0,0,0-3.78,1.75c-2.13,2.07-3.43,5.62-4.68,9a35.24,35.24,0,0,1-3.66,8c-1.44,2-3.09,4-4.69,5.91-3.19,3.79-6.48,7.71-8.22,12.48a28,28,0,0,0-1.36,11.9,24.1,24.1,0,0,0,3.77,11.87,13.44,13.44,0,0,0,10.26,6.12c6.46.25,11.59-5.27,14.05-10.07a54.79,54.79,0,0,0,2.9-7.25,38.93,38.93,0,0,1,4.62-10.08,37.39,37.39,0,0,0,6.63-17.72c1.4-10.75-3.09-22-6.77-23.62s-5.77,2.14-5.87,2.3a.49.49,0,0,1-.33.25.52.52,0,0,1-.4-.09A4.42,4.42,0,0,0,88.85,45.64Z" fill="#231f20"/><path d="M97.68,81.26S103.27,92.4,108,91.53s13.83-12.92,13.83-12.92L119,73.05s-7.83,11.89-11,11-8.07-11-8.07-11Z" fill="#fff"/><path d="M107.5,92.08c-4.89,0-10-10.14-10.27-10.59a.45.45,0,0,1,0-.36l2.28-8.22a.48.48,0,0,1,.43-.36.51.51,0,0,1,.5.27c1.34,2.74,5.37,10,7.76,10.7,2,.6,7.44-6.27,10.39-10.75a.5.5,0,0,1,.44-.22.48.48,0,0,1,.42.27l2.88,5.57a.51.51,0,0,1,0,.53c-.38.49-9.25,12.21-14.15,13.1A3.08,3.08,0,0,1,107.5,92.08ZM98.21,81.21c1.6,3.11,6.19,10.46,9.73,9.83,4.14-.76,12-10.76,13.33-12.48L118.92,74c-2,3-8,11.36-11,10.45-2.69-.81-6.33-7.29-7.78-10.06Z" fill="#231f20"/><path d="M92.09,162.11,87,174.62s15.77,2.41,15.84.79-2.32-3.72-2.32-3.72-5.19-.92-4.64-2,2.52-5.28,2.52-5.28Z" fill="#fff"/><path d="M100.12,176.46a110.22,110.22,0,0,1-13.18-1.34.48.48,0,0,1-.35-.25.47.47,0,0,1,0-.43l5.06-12.52a.51.51,0,0,1,.64-.28L98.6,164a.53.53,0,0,1,.29.28.5.5,0,0,1,0,.4c-.08.17-1.89,4.05-2.49,5.22a11.93,11.93,0,0,0,4.23,1.34.58.58,0,0,1,.25.12c.26.23,2.57,2.31,2.49,4.11a.81.81,0,0,1-.3.58A5.92,5.92,0,0,1,100.12,176.46Zm-12.4-2.24c6.57,1,13.58,1.62,14.64,1.06-.06-1.07-1.43-2.55-2-3.12-1.41-.26-4.37-.91-4.86-1.91a.84.84,0,0,1,0-.77c.43-.82,1.74-3.62,2.28-4.77l-5.37-2Z" fill="#231f20"/><path d="M85.82,177.74l1.2-4.3s8.27,2.18,9.31,1.48,2.57-4.16,2.57-4.16,11.91,6.48,11.56,7.82-9.71.8-12.74,1.23S85.82,177.74,85.82,177.74Z" fill="#231f20"/><path d="M96.91,180.36c-3.6,0-10.89-2.05-11.22-2.14a.51.51,0,0,1-.35-.62l1.2-4.29a.5.5,0,0,1,.61-.35c3.78,1,8.26,1.87,8.91,1.54s1.81-2.66,2.38-3.94a.52.52,0,0,1,.3-.28.51.51,0,0,1,.4,0c8.13,4.43,12.1,7.25,11.8,8.39s-2.78,1.28-8.4,1.38c-1.92,0-3.73.07-4.75.21A5.8,5.8,0,0,1,96.91,180.36Zm-10.47-3c1.87.5,8.72,2.28,11.21,1.92,1.08-.15,2.92-.18,4.87-.22,2.51,0,6.66-.12,7.41-.63-.59-1-5.87-4.3-10.8-7-.49,1-1.61,3.27-2.52,3.88s-6.48-.57-9.24-1.28Z" fill="#231f20"/><path d="M82.25,166.61l.41,9.08s6.32,1.93,8.41,1.41a6.32,6.32,0,0,0,3.34-2.48s-4.19-.77-4.3-2.45.08-6,.08-6Z" fill="#fff"/><path d="M90.16,177.69a34.43,34.43,0,0,1-7.65-1.52.49.49,0,0,1-.35-.45l-.41-9.08a.51.51,0,0,1,.48-.53l7.93-.42a.5.5,0,0,1,.38.15.51.51,0,0,1,.15.37s-.19,4.29-.08,5.92c.06.88,2.36,1.72,3.89,2a.49.49,0,0,1,.37.3.47.47,0,0,1,0,.46,6.76,6.76,0,0,1-3.64,2.7A4.49,4.49,0,0,1,90.16,177.69Zm-7-2.37c1.94.57,6.3,1.67,7.8,1.3a5.43,5.43,0,0,0,2.59-1.68c-1.38-.34-3.82-1.17-3.92-2.74-.09-1.35,0-4.26.06-5.48l-6.9.37Z" fill="#231f20"/><path d="M114,139.65c-.57-6.1-12.82-42.89-12.82-42.89L78.69,99.25l1.93,67.69a10.37,10.37,0,0,0,10.2.45l.11-2.92,6.7,3.15S114.52,145.76,114,139.65ZM93.54,124.17s5.91,16.06,5.32,18.35c-.43,1.7-5.32,12.69-7.79,18.2Z" fill="#231f20"/><path d="M86.17,169.05a11,11,0,0,1-5.84-1.7.49.49,0,0,1-.21-.4L78.19,99.27a.5.5,0,0,1,.45-.52l22.44-2.49a.51.51,0,0,1,.53.34c.5,1.51,12.28,36.92,12.84,43h0C115,145.83,98.72,167,98,167.93a.49.49,0,0,1-.61.15l-6-2.83-.08,2.16a.49.49,0,0,1-.27.42A10.54,10.54,0,0,1,86.17,169.05Zm-5.06-2.39a9.77,9.77,0,0,0,9.22.41l.1-2.62a.47.47,0,0,1,.24-.41.52.52,0,0,1,.47,0l6.33,3c2.07-2.71,16.49-21.85,16-27.3h0c-.52-5.64-11.36-38.46-12.67-42.4L79.2,99.7Zm10-5.44h-.13a.5.5,0,0,1-.37-.52L93,124.14a.52.52,0,0,1,.43-.47A.5.5,0,0,1,94,124c.61,1.66,5.94,16.27,5.34,18.64-.43,1.71-5.09,12.19-7.83,18.29A.49.49,0,0,1,91.07,161.22Zm2.81-34.64L91.75,158c4-8.85,6.35-14.47,6.63-15.56C98.73,141,96.07,132.73,93.88,126.58Z" fill="#231f20"/><path d="M81.45,180.06l.44-6.41s7.8,2.64,9.18,1.53a14.73,14.73,0,0,0,2.73-3.49s9.86,6.42,10.16,7.27-.33,1.38-1.38,1.38S81.45,180.06,81.45,180.06Z" fill="#231f20"/><path d="M102.58,180.84c-1,0-20.32-.26-21.14-.28a.48.48,0,0,1-.36-.16A.5.5,0,0,1,81,180l.44-6.41a.51.51,0,0,1,.22-.39.52.52,0,0,1,.44,0c3.62,1.22,8,2.19,8.7,1.61a14.27,14.27,0,0,0,2.62-3.35.48.48,0,0,1,.32-.23.49.49,0,0,1,.39.06c3.73,2.44,10,6.65,10.35,7.52a1.4,1.4,0,0,1-.13,1.33A2,2,0,0,1,102.58,180.84ZM82,179.57c3.18,0,19.65.27,20.6.27.52,0,.81-.15.9-.29s.11-.15,0-.42c-.39-.6-5.66-4.21-9.53-6.74a13.64,13.64,0,0,1-2.58,3.18c-1.34,1.08-6.67-.47-9-1.24Z" fill="#231f20"/><path d="M90.67,65.21a9.38,9.38,0,0,0-9.74,4.12C77,75,78,101.85,78,101.85l24.16-3.72s-.86-20.79-1.9-26.33S90.67,65.21,90.67,65.21Z" fill="#a44200" class="target-color"/><path d="M104.11,61.53c.37-1.1.73-2.19,1.12-3.28.2-.57.43-1.13.66-1.68a1.6,1.6,0,0,1,1.73-1.06c.89.09,1.77.28,2.65.42a7.69,7.69,0,0,0,1.42.19,1.59,1.59,0,0,0,1-.32c1-1,2-2,2.94-3a1.49,1.49,0,0,0,.3-1.4c-.22-1.07-.48-2.13-.7-3.2a4.56,4.56,0,0,1-.12-1.27,1.19,1.19,0,0,1,.42-.81,19.33,19.33,0,0,1,5.29-2.41,1.3,1.3,0,0,1,1.51.54c.68.93,1.39,1.83,2,2.78a2.12,2.12,0,0,0,2.08,1c1.17-.08,2.35-.1,3.52-.16a1.32,1.32,0,0,0,1.06-.63c.42-.62.81-1.26,1.22-1.88s.7-1.08,1.07-1.6a1.34,1.34,0,0,1,1.62-.55q2.43.83,4.85,1.75a1.4,1.4,0,0,1,.87,1.56c-.08.9-.29,1.79-.43,2.69-.07.42-.13.84-.17,1.27a1.75,1.75,0,0,0,.54,1.48c.86.81,1.73,1.61,2.55,2.44A1.9,1.9,0,0,0,145,55c1.16-.25,2.31-.53,3.47-.78a1.55,1.55,0,0,1,2,.92c.66,1.39,1.3,2.78,1.91,4.19a1.64,1.64,0,0,1-.6,2.31c-.59.47-1.24.88-1.85,1.34-.44.32-.87.66-1.28,1a1.49,1.49,0,0,0-.54,1.2c0,1.22.05,2.43.1,3.65a1.94,1.94,0,0,0,1,1.61l2,1.18a12,12,0,0,1,1.2.81,1.44,1.44,0,0,1,.54,1.74q-.81,2.19-1.64,4.38a3.85,3.85,0,0,1-.36.62,1.3,1.3,0,0,1-1.36.64l-3.16-.53-.24,0a2.28,2.28,0,0,0-2.41.85c-.6.7-1.27,1.34-1.91,2a2.28,2.28,0,0,0-.58,2.29c.26,1,.51,2,.72,3.08a1.51,1.51,0,0,1-1,2c-1.43.69-2.88,1.33-4.34,1.95a1.44,1.44,0,0,1-1.92-.5c-.57-.71-1.08-1.46-1.61-2.2-1.13-1.59-1.41-1.73-3.37-1.63l-2.27.13a2.08,2.08,0,0,0-1.79,1c-.47.77-.91,1.55-1.39,2.3a7,7,0,0,1-.88,1.08,1,1,0,0,1-1.2.31l-4.61-1.72a2.91,2.91,0,0,1-.59-.34,1.28,1.28,0,0,1-.64-1.35c.16-1,.34-2.08.5-3.12,0-.32.08-.64.1-1a1.68,1.68,0,0,0-.53-1.41c-.84-.76-1.66-1.54-2.49-2.32a1.82,1.82,0,0,0-1.81-.44c-1,.25-2,.47-3.08.71l-.12,0c-1.34.24-1.78.07-2.36-1.17s-1.24-2.77-1.81-4.18a1.39,1.39,0,0,1,.56-1.93c.82-.62,1.65-1.22,2.51-1.78a2.47,2.47,0,0,0,1.24-2.42c-.08-1.09-.11-2.19-.16-3.28a1.38,1.38,0,0,0-.64-1.14c-.91-.59-1.83-1.16-2.74-1.74a3,3,0,0,1-1.43-1.5Zm34.78,6.1a10.37,10.37,0,0,0-10.45-10.39,10.55,10.55,0,0,0-10.23,10.41A10.39,10.39,0,0,0,128.51,78,10.25,10.25,0,0,0,138.89,67.63Z" fill="#a44200" class="target-color"/><path d="M83.88,80.51s5.29,17,8.21,16.91,13.82-9.06,16.52-11.26,6.3-5.17,7.21-6.77.15-2.89-.6-2.79a23.39,23.39,0,0,0-3.49,1.55s.63-2.18.26-2.32-2.1.67-2.95,3.86L95.22,88,92.28,77.68" fill="#fff"/><path d="M92.07,97.92c-3.06,0-7.41-13.2-8.67-17.26a.5.5,0,1,1,.95-.3c2.49,8,6.13,16.56,7.71,16.56h0c1.21,0,5-2,15.92-10.9l.31-.24c2.15-1.76,6.17-5,7.08-6.64a1.81,1.81,0,0,0,.18-1.86c-.09-.12-.19-.2-.27-.18A20.65,20.65,0,0,0,112,78.59a.48.48,0,0,1-.55,0,.51.51,0,0,1-.17-.53,10.42,10.42,0,0,0,.34-1.61,5.53,5.53,0,0,0-2.07,3.42.49.49,0,0,1-.23.3L95.48,88.45a.49.49,0,0,1-.44,0,.52.52,0,0,1-.3-.33L91.8,77.82a.5.5,0,0,1,.34-.62.51.51,0,0,1,.62.34l2.76,9.71,13.09-7.89c.78-2.72,2.16-3.63,2.57-3.84a1.28,1.28,0,0,1,1-.16c.24.09.65.24.32,1.85a13.27,13.27,0,0,1,2.67-1.1,1.26,1.26,0,0,1,1.23.61,2.74,2.74,0,0,1-.13,2.92c-.92,1.63-4.26,4.42-7.32,6.91l-.31.25C99.39,94.32,94.14,97.86,92.1,97.92Z" fill="#231f20"/><path d="M119.09,75.76a2.68,2.68,0,0,0,3,1.72,1.55,1.55,0,0,0,.92-.66,2,2,0,0,0,0-1.59c-.29-1-1.85-4.12-3.25-3.85S118.72,74.86,119.09,75.76Z" fill="#fff"/><path d="M121.52,78.05a3.31,3.31,0,0,1-2.89-2.1h0a6.41,6.41,0,0,1,0-4.28,1.39,1.39,0,0,1,1-.78c2-.37,3.63,3.59,3.82,4.2a2.42,2.42,0,0,1-.07,2,2,2,0,0,1-1.22.89A2.63,2.63,0,0,1,121.52,78.05Zm-1.59-6.19h-.09s-.17,0-.3.27a5.72,5.72,0,0,0,0,3.43h0A2.22,2.22,0,0,0,121.92,77a1,1,0,0,0,.62-.43,1.51,1.51,0,0,0,0-1.19C122.19,74.28,120.81,71.86,119.93,71.86Z" fill="#231f20"/><path d="M100,51s1.83,5.59.92,8.76a4.7,4.7,0,0,1-3.81,3.47l-.31,5.68s-.13,2.91-3.67,2.26a6.1,6.1,0,0,1-4.59-3.78l.17-10.47s3.78-4.54,3.63-8.31C92.3,48.61,96.8,52.34,100,51Z" fill="#fff"/><path d="M94.05,71.77a6.55,6.55,0,0,1-6-4.22.88.88,0,0,1,0-.16l.17-10.47a.52.52,0,0,1,.11-.32s3.66-4.44,3.52-8a.53.53,0,0,1,.28-.47.5.5,0,0,1,.54.06s4.3,3.53,7.14,2.32a.47.47,0,0,1,.4,0,.5.5,0,0,1,.27.3c.08.23,1.88,5.78.93,9.06a5.18,5.18,0,0,1-3.81,3.75l-.29,5.29a3,3,0,0,1-3.21,2.83Zm-5-4.46a5.57,5.57,0,0,0,4.18,3.37,2.82,2.82,0,0,0,2.33-.35,2.18,2.18,0,0,0,.75-1.44l.31-5.69a.5.5,0,0,1,.45-.47,4.18,4.18,0,0,0,3.38-3.11c.71-2.45-.36-6.58-.77-8-2.51.68-5.48-1.09-6.87-2.06-.37,3.32-3,6.78-3.6,7.52Z" fill="#231f20"/><path d="M90.67,56.3s-1.54-4-3.65-1.66.62,5.26,2.39,5.12" fill="#fff"/><path d="M89.29,60.26A3.91,3.91,0,0,1,86.13,58a3.22,3.22,0,0,1,.52-3.73,2.17,2.17,0,0,1,2-.9c1.5.28,2.38,2.46,2.47,2.71a.49.49,0,0,1-.29.64.5.5,0,0,1-.64-.28c-.19-.5-.91-1.94-1.72-2.08-.33-.07-.7.13-1.1.57A2.23,2.23,0,0,0,87,57.59a2.82,2.82,0,0,0,2.35,1.67.5.5,0,0,1,.08,1Z" fill="#231f20"/><path d="M96.61,58.74a4.83,4.83,0,0,1-1.34-.22.5.5,0,0,1,.31-1,3.39,3.39,0,0,0,1.27.16,11.69,11.69,0,0,0-1.4-2.62.5.5,0,0,1,.13-.7.51.51,0,0,1,.7.14c.67,1,1.77,2.81,1.55,3.58a.7.7,0,0,1-.38.46A2.16,2.16,0,0,1,96.61,58.74Z" fill="#231f20"/><path d="M96.14,61.15A4.09,4.09,0,0,1,95,61a5.69,5.69,0,0,1-3.13-2.56.5.5,0,0,1,.92-.37,4.91,4.91,0,0,0,2.64,2,3.38,3.38,0,0,0,2.85-.7.5.5,0,1,1,.59.81A4.62,4.62,0,0,1,96.14,61.15Z" fill="#231f20"/><path d="M97.07,63.23a16.78,16.78,0,0,1-4.78-.32s1.66,4.58,4.55,4.71Z" fill="#231f20"/><path d="M96.84,68.12h0c-3.19-.15-4.92-4.84-5-5a.52.52,0,0,1,.11-.52.49.49,0,0,1,.51-.13,16.27,16.27,0,0,0,4.59.3.51.51,0,0,1,.39.14.54.54,0,0,1,.15.39l-.23,4.38A.51.51,0,0,1,96.84,68.12Zm-3.69-4.51c.55,1.14,1.68,3,3.22,3.43l.17-3.28A19.08,19.08,0,0,1,93.15,63.61Z" fill="#231f20"/><ellipse cx="93.1" cy="54.05" rx="0.45" ry="0.78" fill="#231f20"/><ellipse cx="97.68" cy="54.25" rx="0.45" ry="0.78" fill="#231f20"/><path d="M93.54,125.67h0a.51.51,0,0,1-.47-.53c.3-4.39-.56-15.54-.57-15.65a.5.5,0,0,1,1-.08c0,.46.87,11.34.57,15.79A.5.5,0,0,1,93.54,125.67Z" fill="#fff"/></g></svg>